HIERARCHY
ROOT Hips
{
	OFFSET 62.890800 8.863803 43.568401
	CHANNELS 6 Xposition Yposition Zposition Zrotation Xrotation Yrotation
	JOINT Chest
	{
		OFFSET -0.160400 1.630001 7.806301
		CHANNELS 6 Xposition Yposition Zposition Zrotation Xrotation Yrotation
		JOINT Chest2
		{
			OFFSET 0.000000 0.000000 3.197998
			CHANNELS 6 Xposition Yposition Zposition Zrotation Xrotation Yrotation
			JOINT Neck
			{
				OFFSET 0.000000 0.000001 7.440701
				CHANNELS 6 Xposition Yposition Zposition Zrotation Xrotation Yrotation
				JOINT Head
				{
					OFFSET 0.000000 0.000000 2.173901
					CHANNELS 6 Xposition Yposition Zposition Zrotation Xrotation Yrotation
					End Site
					{
						OFFSET 0.000000 0.000001 10.420303
					}
				}
			}
			JOINT LeftCollar
			{
				OFFSET 2.426399 -1.880099 4.759399
				CHANNELS 6 Xposition Yposition Zposition Zrotation Xrotation Yrotation
				JOINT LeftShoulder
				{
					OFFSET 4.420197 0.000000 0.000000
					CHANNELS 6 Xposition Yposition Zposition Zrotation Xrotation Yrotation
					JOINT LeftElbow
					{
						OFFSET 0.000000 -0.000001 -10.347099
						CHANNELS 6 Xposition Yposition Zposition Zrotation Xrotation Yrotation
						JOINT LeftWrist
						{
							OFFSET 0.000000 -0.000001 -12.496300
							CHANNELS 6 Xposition Yposition Zposition Zrotation Xrotation Yrotation
							End Site
							{
								OFFSET 0.000000 0.000000 -2.173901
							}
						}
					}
				}
			}
			JOINT RightCollar
			{
				OFFSET -2.781502 -1.903799 5.072601
				CHANNELS 6 Xposition Yposition Zposition Zrotation Xrotation Yrotation
				JOINT RightShoulder
				{
					OFFSET -4.012100 0.000000 0.000000
					CHANNELS 6 Xposition Yposition Zposition Zrotation Xrotation Yrotation
					JOINT RightElbow
					{
						OFFSET 0.000000 -0.000001 -10.346600
						CHANNELS 6 Xposition Yposition Zposition Zrotation Xrotation Yrotation
						JOINT RightWrist
						{
							OFFSET 0.000000 -0.000001 -12.562599
							CHANNELS 6 Xposition Yposition Zposition Zrotation Xrotation Yrotation
							End Site
							{
								OFFSET 0.000000 0.000000 -2.173901
							}
						}
					}
				}
			}
		}
	}
	JOINT LeftHip
	{
		OFFSET 2.047997 -0.047200 -2.693199
		CHANNELS 6 Xposition Yposition Zposition Zrotation Xrotation Yrotation
		JOINT LeftKnee
		{
			OFFSET 0.000000 -0.000001 -18.824400
			CHANNELS 6 Xposition Yposition Zposition Zrotation Xrotation Yrotation
			JOINT LeftAnkle
			{
				OFFSET 0.000000 -0.000002 -19.078199
				CHANNELS 6 Xposition Yposition Zposition Zrotation Xrotation Yrotation
				End Site
				{
					OFFSET 0.000000 -9.342100 0.000001
				}
			}
		}
	}
	JOINT RightHip
	{
		OFFSET -2.129898 -0.022300 -2.538300
		CHANNELS 6 Xposition Yposition Zposition Zrotation Xrotation Yrotation
		JOINT RightKnee
		{
			OFFSET 0.000000 -0.000001 -18.644600
			CHANNELS 6 Xposition Yposition Zposition Zrotation Xrotation Yrotation
			JOINT RightAnkle
			{
				OFFSET 0.000000 -0.000002 -18.801399
				CHANNELS 6 Xposition Yposition Zposition Zrotation Xrotation Yrotation
				End Site
				{
					OFFSET 0.000000 -8.914600 0.000001
				}
			}
		}
	}
}
MOTION
Frames: 9
Frame Time: 0.041667
6.596893 -42.573101 30.407749 -297.417364 -11.123614 -8.319880 -0.160403 1.630008 7.806305 41.915635 19.632537 -2.346043 0.000012 -0.000000 3.198005 -12.415747 -1.189060 -0.363512 -0.000001 0.000003 7.440701 3.676553 0.459770 4.274510 -0.000004 0.000001 2.173908 -2.077243 -3.471729 -1.536897 2.426406 -1.880098 4.759391 -0.037576 8.277470 12.222681 4.420200 -0.000000 -0.000000 -28.219352 26.229583 -33.517880 -0.000001 -0.000002 -10.347093 334.797186 -42.106999 2.180231 -0.000004 -0.000001 -12.496294 161.407096 182.170721 144.582646 -2.781503 -1.903794 5.072604 39.741736 26.332536 -8.975254 -4.012097 0.000008 -0.000004 46.627666 -12.775643 111.644694 -0.000003 0.000000 -10.346589 -19.265606 -12.926853 -9.689838 0.000004 0.000000 -12.562599 942.008106 -183.777878 228.188602 2.047996 -0.047192 -2.693194 -269.710182 -26.440050 59.502504 -0.000004 0.000005 -18.824402 39.956245 138.667102 -127.270835 -0.000002 -0.000003 -19.078201 346.641909 16.509156 12.737479 -2.129901 -0.022297 -2.538291 -619.709839 36.755311 -39.394004 0.000003 0.000002 -18.644600 522.957914 180.155255 114.920856 0.000003 -0.000001 -18.801403 -83.794216 -39.442625 -83.269678
6.597286 -42.573006 30.413948 -297.485993 -11.096963 -8.345751 -0.160396 1.630001 7.806306 42.002218 19.578216 -2.349282 0.000002 -0.000001 3.198002 -12.437232 -1.173711 -0.335419 -0.000014 0.000005 7.440697 3.662958 0.477580 4.253365 0.000004 -0.000001 2.173901 -2.066399 -3.478007 -1.510680 2.426398 -1.880095 4.759396 -0.005221 8.213922 12.180104 4.420198 0.000001 0.000002 -28.318400 26.257216 -33.425914 0.000004 -0.000003 -10.347097 334.901633 -42.046621 2.283229 -0.000001 -0.000002 -12.496298 161.355815 182.182223 144.589162 -2.781505 -1.903800 5.072598 39.672717 26.278834 -8.744525 -4.012100 0.000003 -0.000008 46.679384 -12.864331 111.496404 -0.000001 0.000003 -10.346601 -19.292066 -12.910162 -9.703568 0.000004 0.000000 -12.562597 942.045263 -183.727376 227.983395 2.047996 -0.047202 -2.693201 -269.657316 -26.454405 59.518405 -0.000001 0.000003 -18.824398 40.000497 138.665298 -127.262339 0.000001 -0.000002 -19.078197 346.666033 16.540353 12.728632 -2.129898 -0.022301 -2.538296 -619.769617 36.835825 -39.316024 -0.000002 -0.000001 -18.644594 522.994688 180.037803 114.946442 0.000003 -0.000007 -18.801399 -83.639717 -39.451357 -83.220828
6.597984 -42.572693 30.419750 -297.546290 -11.074334 -8.372991 -0.160399 1.629999 7.806295 42.125673 19.523068 -2.365240 0.000002 0.000000 3.197993 -12.484310 -1.149027 -0.306918 -0.000008 0.000001 7.440699 3.614005 0.488888 4.247112 -0.000014 -0.000000 2.173907 -2.051358 -3.491534 -1.494638 2.426400 -1.880098 4.759397 -0.005964 8.186094 12.152496 4.420193 -0.000003 0.000000 -28.427915 26.269509 -33.366297 0.000001 0.000001 -10.347090 335.055394 -41.989073 2.404758 -0.000004 0.000002 -12.496290 161.303742 182.185584 144.609462 -2.781503 -1.903798 5.072603 39.643948 26.248584 -8.577956 -4.012098 0.000008 -0.000002 46.689148 -12.950746 111.400980 0.000000 -0.000004 -10.346603 -19.367022 -12.881271 -9.735532 -0.000001 -0.000005 -12.562602 942.148316 -183.696080 227.795442 2.047995 -0.047201 -2.693202 -269.633411 -26.480614 59.517708 -0.000002 0.000007 -18.824402 40.074769 138.660312 -127.273581 -0.000003 -0.000010 -19.078203 346.683245 16.564880 12.727287 -2.129901 -0.022304 -2.538300 -619.814423 36.907839 -39.254101 -0.000001 -0.000006 -18.644592 523.013102 179.925474 114.969214 -0.000000 -0.000001 -18.801401 -83.488906 -39.458761 -83.167546
6.598793 -42.572098 30.424644 -297.588419 -11.055836 -8.399626 -0.160402 1.630001 7.806306 42.264760 19.473774 -2.385819 0.000000 -0.000001 3.198004 -12.549510 -1.121515 -0.283435 -0.000014 0.000001 7.440702 3.545213 0.490214 4.247798 -0.000004 0.000001 2.173904 -2.036774 -3.511761 -1.489931 2.426393 -1.880099 4.759396 -0.036729 8.192319 12.139861 4.420197 -0.000002 0.000003 -28.531339 26.264572 -33.344126 0.000005 -0.000001 -10.347093 335.235711 -41.941104 2.535954 -0.000003 0.000003 -12.496306 161.254004 182.180680 144.641673 -2.781508 -1.903798 5.072606 39.643391 26.236215 -8.481686 -4.012105 0.000006 -0.000000 46.669344 -13.022989 111.270905 0.000000 0.000004 -10.346603 -19.378041 -12.885356 -9.684480 0.000006 -0.000003 -12.562601 942.223175 -183.696162 227.721417 2.047995 -0.047197 -2.693202 -269.634422 -26.507879 59.509218 -0.000004 0.000003 -18.824402 40.161591 138.655968 -127.297336 -0.000013 -0.000002 -19.078201 346.695293 16.589693 12.731789 -2.129898 -0.022299 -2.538300 -619.853765 36.970393 -39.206519 0.000004 -0.000004 -18.644598 523.022446 179.831996 114.989090 -0.000001 0.000003 -18.801394 -83.360376 -39.463385 -83.119400
6.599983 -42.571205 30.428350 -297.611314 -11.042772 -8.425483 -0.160406 1.630001 7.806304 42.404079 19.436418 -2.406340 0.000008 0.000001 3.197999 -12.623456 -1.097921 -0.266876 -0.000005 0.000004 7.440707 3.472105 0.480760 4.249967 -0.000000 0.000002 2.173911 -2.025474 -3.536535 -1.499354 2.426406 -1.880097 4.759399 -0.095656 8.229640 12.142399 4.420185 0.000003 0.000009 -28.613780 26.239748 -33.359368 -0.000000 0.000002 -10.347094 335.429989 -41.902890 2.675187 -0.000002 -0.000001 -12.496302 161.199158 182.172879 144.679785 -2.781506 -1.903796 5.072614 39.668902 26.240834 -8.464737 -4.012097 0.000011 -0.000002 46.632942 -13.062355 111.291874 -0.000002 0.000000 -10.346600 -19.337317 -12.861591 -9.706552 0.000007 -0.000000 -12.562593 942.242081 -183.688280 227.675081 2.047997 -0.047202 -2.693198 -269.660294 -26.534580 59.494458 0.000008 -0.000000 -18.824400 40.254987 138.650941 -127.327061 -0.000002 -0.000001 -19.078201 346.707260 16.610226 12.737968 -2.129898 -0.022301 -2.538294 -619.891249 37.023215 -39.172368 0.000002 0.000002 -18.644604 523.027856 179.755771 115.003611 -0.000005 -0.000002 -18.801395 -83.266829 -39.466892 -83.097741
6.601288 -42.570305 30.430748 -297.615057 -11.033653 -8.449609 -0.160400 1.629996 7.806309 42.518457 19.413201 -2.418598 0.000004 -0.000001 3.197997 -12.691885 -1.083155 -0.258580 -0.000014 0.000003 7.440700 3.410137 0.460538 4.249718 -0.000005 0.000000 2.173910 -2.020557 -3.560997 -1.516546 2.426394 -1.880099 4.759400 -0.164998 8.280845 12.151321 4.420197 0.000002 0.000004 -28.671573 26.197346 -33.394793 0.000002 0.000001 -10.347096 335.608421 -41.871139 2.811102 -0.000005 0.000002 -12.496299 161.144298 182.163973 144.720138 -2.781504 -1.903803 5.072606 39.703005 26.253055 -8.499698 -4.012096 0.000007 -0.000002 46.599297 -13.072959 111.356290 0.000003 -0.000006 -10.346601 -19.240851 -12.840450 -9.720366 0.000007 -0.000007 -12.562589 942.244048 -183.679892 227.643484 2.047995 -0.047202 -2.693196 -269.703516 -26.557162 59.478954 0.000000 0.000005 -18.824396 40.344763 138.646529 -127.357633 -0.000002 0.000000 -19.078201 346.717041 16.628184 12.744962 -2.129894 -0.022299 -2.538295 -619.936328 37.070117 -39.143336 0.000002 -0.000010 -18.644590 523.033921 179.687838 115.011056 0.000002 -0.000003 -18.801399 -83.197373 -39.469034 -83.094599
6.602795 -42.569305 30.431746 -297.598609 -11.027674 -8.468602 -0.160401 1.630005 7.806307 42.586841 19.400826 -2.421164 0.000008 -0.000002 3.197995 -12.744114 -1.078943 -0.255388 -0.000006 0.000000 7.440704 3.372348 0.429499 4.246582 -0.000004 0.000001 2.173898 -2.023633 -3.583081 -1.536158 2.426404 -1.880100 4.759396 -0.227741 8.328035 12.159853 4.420183 0.000001 -0.000000 -28.706503 26.145515 -33.434801 -0.000001 0.000001 -10.347097 335.742101 -41.844358 2.929731 0.000003 -0.000000 -12.496300 161.097279 182.157197 144.768455 -2.781503 -1.903797 5.072601 39.733075 26.268021 -8.549501 -4.012101 -0.000001 -0.000002 46.583027 -13.067671 111.437391 0.000002 0.000006 -10.346597 -19.173342 -12.810297 -9.739696 0.000000 -0.000000 -12.562597 942.297597 -183.678458 227.640288 2.047997 -0.047194 -2.693205 -269.757775 -26.572427 59.466113 -0.000001 -0.000001 -18.824402 40.420783 138.643783 -127.387071 -0.000011 -0.000003 -19.078201 346.722423 16.645673 12.753406 -2.129898 -0.022298 -2.538301 -620.004521 37.114842 -39.109667 0.000000 0.000004 -18.644598 523.050860 179.621052 115.012244 0.000005 -0.000005 -18.801397 -83.147315 -39.471615 -83.112283
6.604187 -42.568203 30.431444 -297.562327 -11.023067 -8.478664 -0.160402 1.630002 7.806304 42.597260 19.394191 -2.413338 0.000005 -0.000000 3.198002 -12.772611 -1.086791 -0.255579 -0.000007 0.000003 7.440696 3.350918 0.392654 4.248513 -0.000003 0.000001 2.173912 -2.028400 -3.600366 -1.557315 2.426405 -1.880098 4.759399 -0.272457 8.360403 12.168224 4.420191 -0.000002 0.000003 -28.724910 26.096734 -33.474381 -0.000001 -0.000002 -10.347098 335.791333 -41.828468 3.013767 -0.000005 0.000002 -12.496294 161.076010 182.162825 144.830473 -2.781503 -1.903799 5.072605 39.757339 26.283662 -8.600566 -4.012093 0.000004 0.000006 46.585995 -13.052678 111.525432 -0.000003 -0.000002 -10.346593 -19.040605 -12.792027 -9.749302 0.000000 0.000002 -12.562598 942.265359 -183.705874 227.739708 2.047997 -0.047200 -2.693197 -269.820285 -26.582763 59.462377 0.000008 0.000005 -18.824402 40.478945 138.641215 -127.409434 -0.000002 0.000002 -19.078205 346.730182 16.664000 12.759969 -2.129898 -0.022297 -2.538293 -620.097029 37.153296 -39.069314 0.000001 -0.000002 -18.644604 523.080257 179.557190 115.009362 0.000002 0.000000 -18.801399 -83.108963 -39.475792 -83.132486
6.605591 -42.566895 30.430042 -297.508314 -11.019651 -8.479256 -0.160398 1.630005 7.806300 42.561470 19.388419 -2.400426 0.000006 0.000001 3.197997 -12.784937 -1.104225 -0.256910 -0.000007 0.000001 7.440705 3.329897 0.352718 4.264018 -0.000010 0.000001 2.173902 -2.026748 -3.608907 -1.581262 2.426402 -1.880100 4.759401 -0.293980 8.376939 12.173097 4.420191 -0.000000 -0.000002 -28.739810 26.054014 -33.506012 -0.000001 0.000003 -10.347096 335.676176 -41.825213 2.989219 0.000000 -0.000005 -12.496301 161.148150 182.174068 144.927762 -2.781496 -1.903802 5.072605 39.766987 26.292357 -8.639483 -4.012098 0.000000 -0.000001 46.607585 -13.029993 111.604185 0.000003 0.000000 -10.346593 -18.942695 -12.772361 -9.768167 -0.000002 0.000002 -12.562592 942.248638 -183.748563 227.888305 2.047995 -0.047191 -2.693205 -269.894051 -26.593335 59.466004 -0.000004 -0.000004 -18.824400 40.523891 138.636024 -127.424351 -0.000002 0.000000 -19.078199 346.742640 16.674613 12.762823 -2.129897 -0.022295 -2.538299 -620.222923 37.187658 -39.016144 0.000002 0.000002 -18.644594 523.126210 179.480993 115.002450 0.000001 -0.000003 -18.801397 -83.071288 -39.483514 -83.152451
